<svg xmlns="http://www.w3.org/2000/svg" viewBox="0 0 400 400">
  <circle cx="194.358" cy="203.728" r="176.705" fill="none" stroke="#fb4a1b" stroke-linecap="round" stroke-linejoin="round" stroke-width="20" style="transform-box:fill-box" transform="rotate(166.822 3.167 -3.462)" transform-origin="50% 50%"/>
  <path fill="none" stroke="#fb4a1b" stroke-linecap="round" stroke-linejoin="round" stroke-width="20" d="M-23.656 164.962c-6.148-27.385 9.929-58.552 40.347-58.552 73.682 0 90.277 120.505 188.213 120.505 48.384 0 80.322-39.409 80.322-39.409" style="transform-box:fill-box" transform="rotate(107.78)" transform-origin="50% 50%"/>
  <path fill="none" stroke="#fb4a1b" stroke-linecap="round" stroke-linejoin="round" stroke-width="20" d="M24.68 195.088c-.839-42.112 33.253-76.607 75.366-76.254 100.574 0 106.221 152.453 210.608 152.453 36.557 0 55.412-22.15 65.044-47.299" style="transform-box:fill-box" transform="rotate(107.78)" transform-origin="50% 50%"/>
  <path fill="none" stroke="#fb4a1b" stroke-linecap="round" stroke-linejoin="round" stroke-width="20" d="M101.106 190.728a100.5 100.5 0 0 1 70.986-31.75c104.51 0 128.106 153.48 205.759 153.48a49.8 49.8 0 0 0 36.367-17.121" style="transform-box:fill-box" transform="rotate(107.78)" transform-origin="50% 50%"/>
  <path fill="none" stroke="#fb4a1b" stroke-linecap="round" stroke-linejoin="round" stroke-width="20" d="M401.12 342.52a52.6 52.6 0 0 1-15.657 2.31c-57.845 0-58.765-125.774-175.587-125.774a166.4 166.4 0 0 0-38.465 4.989" style="transform-box:fill-box" transform="rotate(107.78)" transform-origin="50% 50%"/>
</svg>
